[CENTER][CENTER]
===========Visit DUSTorrents.com for more Exclusives==============

Don't forget to Register at DUSTorrents.com A completely free site. Moreover currently ratio free as well.

========================================================


[B][COLOR="#FF0000"]Singham - 2011 - 
1CD Super Cam Rip XviD 
- TheDesiBacha -[/COLOR][/B]


[CODE]Format : AVI
Format/Info : Audio Video Interleave
File size : 677 MiB
Duration : 2h 14mn
Overall bit rate : 706 Kbps
Writing application : Lavf52.39.1
Writing library : VirtualDub build 32842/release

Video
ID : 0
Format : MPEG-4 Visual
Format profile : Advanced Simple@L5
Format settings, BVOP : 2
Format settings, QPel : No
Format settings, GMC : No warppoints
Format settings, Matrix : Default (H.263)
Muxing mode : Packed bitstream
Codec ID : XVID
Codec ID/Hint : XviD
Duration : 2h 14mn
Bit rate : 629 Kbps
Width : 624 pixels
Height : 232 pixels
Display aspect ratio : 2.690
Frame rate : 25.000 fps
Color space : YUV
Chroma subsampling : 4:2:0
Bit depth : 8 bits
Scan type : Progressive
Compression mode : Lossy
Bits/(Pixel*Frame) : 0.174
Stream size : 604 MiB (89%)
Writing library : XviD 63

Audio
ID : 1
Format : MPEG Audio
Format version : Version 1
Format profile : Layer 3
Mode : Joint stereo
Mode extension : MS Stereo
Codec ID : 55
Codec ID/Hint : MP3
Duration : 2h 14mn
Bit rate mode : Constant
Bit rate : 64.0 Kbps
Channel(s) : 2 channels
Sampling rate : 48.0 KHz
Compression mode : Lossy
Stream size : 61.4 MiB (9%)
Alignment : Aligned on interleaves
Interleave, duration : 24 ms (0.60 video frame)
Interleave, preload duration : 504 ms[/CODE]








===========Visit DUSTorrents.com for more Exclusives==============

Don't forget to Register at DUSTorrents.com A completely free site. Moreover currently ratio free as well.

========================================================
[/CENTER][/CENTER]